<svg xmlns:xlink="http://www.w3.org/1999/xlink" width="1920" height="1920" viewBox="0 0 508 508"><defs><linearGradient xlink:href="#prefix__a" id="prefix__g" gradientUnits="userSpaceOnUse" x1="-67.324" y1="142.192" x2="471.845" y2="142.192" gradientTransform="rotate(-25)"/><linearGradient id="prefix__a"><stop offset="0" stop-color="#0fc"/><stop offset="1" stop-color="#ff0050"/></linearGradient><linearGradient xlink:href="#prefix__a" id="prefix__c" gradientUnits="userSpaceOnUse" x1="-67.324" y1="142.192" x2="471.845" y2="142.192" gradientTransform="rotate(-25)"/><linearGradient xlink:href="#prefix__a" id="prefix__d" gradientUnits="userSpaceOnUse" x1="-67.324" y1="142.192" x2="471.845" y2="142.192" gradientTransform="rotate(-25)"/><linearGradient xlink:href="#prefix__a" id="prefix__e" gradientUnits="userSpaceOnUse" x1="-67.324" y1="142.192" x2="471.845" y2="142.192" gradientTransform="rotate(-25)"/><linearGradient xlink:href="#prefix__a" id="prefix__f" gradientUnits="userSpaceOnUse" x1="-67.324" y1="142.192" x2="471.845" y2="142.192" gradientTransform="rotate(-25)"/><linearGradient xlink:href="#prefix__a" id="prefix__b" gradientUnits="userSpaceOnUse" x1="-67.324" y1="142.192" x2="471.845" y2="142.192" gradientTransform="rotate(-25 1798.6 398.743) scale(3.77953)"/><linearGradient xlink:href="#prefix__a" id="prefix__h" gradientUnits="userSpaceOnUse" x1="-67.324" y1="142.192" x2="471.845" y2="142.192" gradientTransform="rotate(-25)"/><linearGradient xlink:href="#prefix__a" id="prefix__i" gradientUnits="userSpaceOnUse" x1="-67.324" y1="142.192" x2="471.845" y2="142.192" gradientTransform="rotate(-25)"/><linearGradient xlink:href="#prefix__a" id="prefix__j" gradientUnits="userSpaceOnUse" x1="-67.324" y1="142.192" x2="471.845" y2="142.192" gradientTransform="rotate(-25)"/><linearGradient xlink:href="#prefix__a" id="prefix__k" gradientUnits="userSpaceOnUse" x1="-67.324" y1="142.192" x2="471.845" y2="142.192" gradientTransform="rotate(-25)"/><linearGradient xlink:href="#prefix__a" id="prefix__l" gradientUnits="userSpaceOnUse" x1="-67.324" y1="142.192" x2="471.845" y2="142.192" gradientTransform="rotate(-25)"/></defs><g font-weight="400" font-size="76.2" font-family="Hitchhiker" word-spacing="0"><path transform="scale(.26458)" d="M260.506 1067.193c-9.919 4.626-18.724 10.957-26.416 18.993-7.693 8.036-13.92 17.4-18.678 28.093-5.107 10.856-8.201 21.938-9.283 33.246-.99 11.054-.081 21.858 2.723 32.414l18.003 67.235c1.947 7.354 2.554 15.016 1.82 22.984-.813 7.795-2.869 15.426-6.165 22.895-5.119 11.284-12.23 20.11-21.338 26.474l-50.4-187.816-21.665 10.101c1.947 7.355 2.466 15.058 1.559 23.108-.814 7.794-2.957 15.466-6.428 23.015-3.296 7.47-7.73 14.091-13.299 19.866-5.476 5.52-11.606 9.863-18.392 13.027l6.568 23.629c9.745-4.544 18.418-10.706 26.018-18.486 7.692-8.036 14.044-17.355 19.058-27.955l35.664 133.04-51.16 23.856c-9.744 4.544-18.463 10.835-26.156 18.871-7.693 8.036-14.092 17.48-19.2 28.336-5.013 10.6-8.06 21.555-9.142 32.863-.989 11.054-.129 21.988 2.582 32.8 3.06 10.648 7.662 19.835 13.807 27.562 6.226 7.9 13.792 13.905 22.7 18.013 8.813 4.364 18.162 6.467 28.044 6.307 9.883-.16 19.697-2.51 29.441-7.055 9.92-4.625 18.724-10.956 26.417-18.992 7.692-8.036 14.092-17.48 19.199-28.336 4.84-10.519 7.715-21.391 8.623-32.619 1.163-11.135.3-22.069-2.584-32.799l-14.371-53.992c10.543-2.375 20.349-1.333 29.418 3.123h.002c.414.223.822.453 1.226.69h.002a39.868 39.868 0 015.666 4.02h.002c6.335 5.372 11.042 12.667 14.627 21.243.398.953.783 1.92 1.154 2.905a110.71 110.71 0 013.004 9.236l19.881 73.984v-.006l.002.006 24.014-11.197-4.555-17.26c-2.109-7.702-2.89-15.282-2.342-22.74.466-7.632 1.653-14.858 3.557-21.678s4.266-13.113 7.086-18.877c2.994-5.845 5.837-10.878 8.53-15.1 2.865-4.302 5.32-7.67 7.362-10.105 2.217-2.516 3.458-3.943 3.725-4.28l-13.027-13.626c-.348.162-2.454 3.368-6.319 9.62-3.945 6.076-9.016 14.056-15.213 23.937a112.675 112.675 0 00-4.736 8.244 172.074 172.074 0 00-3.951 7.879c-.39-1.46-.807-2.895-1.25-4.307a97.237 97.237 0 00-1.41-4.164 91.927 91.927 0 00-1.57-4.018v-.002a88.485 88.485 0 00-.846-1.953v-.002a86.586 86.586 0 00-.887-1.918v-.002c-.302-.633-.61-1.26-.926-1.88v-.002a82.903 82.903 0 00-3.021-5.432 79.085 79.085 0 00-1.088-1.738l-.067-.102a62.46 62.46 0 00-5.101-7.158c-6.227-7.9-13.794-13.907-22.701-18.016-5.428-2.553-10.88-4.247-16.354-5.084a64.329 64.329 0 005.64-8.35l4.632-9.15c5.107-10.855 8.155-21.81 9.144-32.863 1.082-11.309.22-22.243-2.584-32.799l-18.004-67.232c-1.946-7.355-2.513-14.93-1.699-22.725.733-7.968 2.749-15.685 6.045-23.154 7.208-15.436 17.77-26.401 31.691-32.893l-6.308-23.752zm-74.342 287.616l14.598 55.158c1.946 7.354 2.513 14.928 1.699 22.722-.733 7.969-2.834 15.728-6.305 23.278-3.296 7.469-7.771 14.005-13.422 19.605-5.395 5.694-11.485 10.123-18.271 13.287-13.921 6.492-27.37 6.725-40.348.702-6.274-3.006-11.655-7.277-16.142-12.811-4.232-5.441-7.321-11.839-9.268-19.193-1.772-7.436-2.34-15.01-1.7-22.723.734-7.968 2.837-15.73 6.308-23.28 3.296-7.468 7.681-13.962 13.158-19.482 5.569-5.774 11.746-10.243 18.533-13.408l51.16-23.855z" style="line-height:1.25;-inkscape-font-specification:Hitchhiker" letter-spacing="-.003" fill="url(#prefix__b)"/><path d="M127.24 108.573q-1.135 6.583-3.848 11.042-2.745 4.391-5.485 7.35-2.703 2.858-5.134 4.496-2.362 1.606-3.78 2.352-1.98 3.866-4.923 6.751-2.942 2.886-6.672 4.625-4.005 1.868-8.065 1.995-4.024.027-7.692-1.71-3.6-1.768-6.172-4.941-2.503-3.205-3.68-7.532-1.109-4.36-.711-8.917.466-4.59 2.46-8.967 1.995-4.377 5.186-7.63 3.16-3.324 7.165-5.191 4.005-1.868 8.029-1.895 3.99-.095 7.66 1.641 3.599 1.77 6.17 4.942 2.573 3.172 3.681 7.532 1.237 4.636.697 9.428 2.551-2.283 5.388-6.296 2.837-4.013 4.957-10.467zm-31.575 30.194q2.831-1.32 4.973-3.58 2.21-2.292 3.624-5.39 1.414-3.098 1.705-6.26.36-3.195-.477-6.252-.768-3.089-2.618-5.253-1.78-2.196-4.303-3.458-5.215-2.53-10.947.144-2.831 1.32-5.042 3.612-2.21 2.292-3.624 5.39-1.414 3.097-1.705 6.26-.291 3.162.477 6.251 1.706 6.183 6.92 8.712 2.523 1.262 5.354 1.203 2.831-.059 5.663-1.38z" style="line-height:1.25;-inkscape-font-specification:Hitchhiker" letter-spacing="-.003" fill="url(#prefix__c)" transform="translate(0 211)"/><path d="M158.287 95.693q-.106.133-.985 1.132-.81.966-1.948 2.674-1.069 1.675-2.257 3.995-1.12 2.287-1.875 4.994-.756 2.707-.941 5.736-.217 2.96.62 6.016l-5.94 2.77-4.952-18.374q-.897-3.365-2.226-5.856-1.293-2.592-2.683-4.13-1.353-1.64-2.632-2.22-1.243-.681-2.072-.295-.829.387-1.45 1.938-.655 1.482-.96 3.894-.267 2.31-.079 5.418.225 3.006 1.121 6.372l4.953 18.373-6.008 2.802-19.709-73.458 6.008-2.802 6.06 22.734q.185-.507.365-.843l.331-.91q.94-1.952 1.949-3.936 1.078-2.016 2.215-3.724 1.175-1.809 2.505-3.102 1.368-1.394 2.956-2.135 2.694-1.256 5.184-.063.672.36 1.505 1.064.8.636 1.38 1.879.548 1.174.736 3.02.156 1.777-.393 4.387-.543 2.44-1.534 5.003-1.023 2.495-2 4.548-.257.709-.616 1.38-.36.673-.751 1.275 3.65 1.157 6.802 5.573 3.189 4.314 4.982 11.045l.897 3.365q.507-1.077 1.045-2.085.576-1.11 1.253-2.182 2.46-3.921 4.026-6.333 1.533-2.48 1.671-2.545zm-31.841-17.438q-1.893 4.414-1.738 8.713 1.64-1.353 3.016-3.088 1.446-1.767 2.39-3.889.765-1.786 1.571-3.843.876-2.09 1.336-3.986.19-.677.217-1.699.028-1.022-.409-1.238-.134-.106-.41.023-.345.16-.87.658-.488.395-1.197 1.399-.742.934-1.709 2.646-.967 1.712-2.197 4.304z" style="line-height:1.25;-inkscape-font-specification:Hitchhiker" letter-spacing="0" fill="url(#prefix__d)" transform="translate(0 211)"/><path d="M210.056 69.955q-1.135 6.583-3.847 11.042-2.745 4.391-5.485 7.35-2.703 2.858-5.134 4.497-2.362 1.605-3.78 2.35-1.981 3.867-4.923 6.753-2.943 2.885-6.672 4.624-4.006 1.868-8.066 1.995-4.023.027-7.692-1.71-3.6-1.768-6.171-4.94-2.504-3.206-3.681-7.533-1.108-4.36-.71-8.917.465-4.59 2.46-8.967 1.995-4.377 5.186-7.63 3.159-3.324 7.164-5.191 4.006-1.868 8.029-1.895 3.991-.095 7.66 1.641 3.599 1.77 6.171 4.942 2.573 3.172 3.68 7.532 1.238 4.636.698 9.428 2.55-2.283 5.388-6.296 2.837-4.013 4.956-10.467zm-31.575 30.194q2.832-1.32 4.973-3.58 2.21-2.292 3.624-5.39 1.415-3.097 1.706-6.26.36-3.195-.477-6.252-.768-3.089-2.618-5.253-1.781-2.196-4.303-3.458-5.215-2.529-10.947.144-2.832 1.32-5.042 3.612t-3.625 5.39q-1.414 3.097-1.705 6.26-.29 3.162.477 6.251 1.706 6.183 6.921 8.712 2.523 1.262 5.354 1.203 2.83-.059 5.662-1.38z" style="line-height:1.25;-inkscape-font-specification:Hitchhiker" letter-spacing="0" fill="url(#prefix__e)" transform="translate(0 211)"/><path d="M204.4 50.48q2.644-3.167 6.438-6.029 3.863-2.894 8.628-5.116l1.853 7.039q-3.591 1.675-6.409 3.745-2.749 2.039-4.61 4-1.86 1.96-2.758 3.64-.829 1.647-.617 2.642l7.803 30.076-6.077 2.834-10.392-40.135 6.077-2.834z" style="line-height:1.25;-inkscape-font-specification:Hitchhiker" letter-spacing="0" fill="url(#prefix__f)" transform="translate(0 211)"/><path d="M283.028 35.927q-1.134 6.583-3.847 11.043-2.745 4.39-5.485 7.35-2.703 2.858-5.134 4.496-2.362 1.606-3.78 2.351-1.98 3.867-4.923 6.752t-6.672 4.624q-4.005 1.868-8.066 1.996-4.023.026-7.691-1.71-3.6-1.769-6.172-4.941-2.503-3.205-3.68-7.533-1.109-4.36-.712-8.917.467-4.59 2.461-8.966 1.995-4.378 5.186-7.631 3.159-3.323 7.164-5.19 4.006-1.869 8.03-1.895 3.99-.096 7.659 1.64 3.6 1.77 6.172 4.942 2.572 3.173 3.68 7.532 1.237 4.636.697 9.428 2.551-2.282 5.388-6.295 2.837-4.014 4.956-10.467zm-31.574 30.194q2.831-1.32 4.972-3.58 2.21-2.292 3.625-5.39 1.414-3.097 1.705-6.26.36-3.194-.477-6.251-.768-3.09-2.618-5.253-1.78-2.197-4.303-3.459-5.215-2.529-10.947.144-2.831 1.32-5.042 3.613-2.21 2.291-3.624 5.389-1.414 3.098-1.705 6.26-.291 3.163.477 6.252 1.706 6.183 6.92 8.711 2.523 1.263 5.354 1.204 2.831-.06 5.663-1.38z" style="line-height:1.25;-inkscape-font-specification:Hitchhiker" letter-spacing="0" fill="url(#prefix__g)" transform="translate(0 211)"/><path d="M326.803 20.223q-.175.166-1.082.925-.94.69-2.169 2.02-1.23 1.33-2.51 3.273-1.312 1.873-2.197 4.303-.848 2.33-1.097 5.22-.18 2.859.684 6.155l-6.353 2.963-5.261-19.575q-1.895-6.768-7.17-9.605-2.485-1.364-5.279-1.406-2.725-.074-5.35 1.15-2.347 1.094-4.31 3.018-1.892 1.891-3.223 4.446l8.7 32.18-6.422 2.995-10.554-39.22 4.351-2.028q3.837-5.657 9.569-8.33 4.005-1.867 8.093-1.756 4.125.01 7.853 2.056 3.696 1.976 6.259 5.489 2.6 3.412 3.837 8.048l.767 3.089q.503-.907.968-1.712.502-.907 1.036-1.745 1.28-1.942 2.616-3.405 1.372-1.565 2.49-2.591 1.12-1.027 1.884-1.551.765-.525.834-.557l1.518 3.076z" style="line-height:1.25;-inkscape-font-specification:Hitchhiker" letter-spacing="0" fill="url(#prefix__h)" transform="translate(0 211)"/><path d="M375.019-6.969q-1.134 6.583-3.847 11.043-2.745 4.39-5.485 7.35-2.703 2.858-5.134 4.496-2.362 1.606-3.78 2.351-1.98 3.866-4.923 6.752-2.943 2.885-6.672 4.624-4.005 1.868-8.066 1.996-4.023.026-7.692-1.71-3.599-1.77-6.171-4.942-2.504-3.204-3.68-7.532-1.109-4.36-.712-8.917.467-4.59 2.461-8.967 1.995-4.377 5.186-7.63 3.159-3.323 7.164-5.191 4.006-1.868 8.03-1.894 3.99-.096 7.659 1.64 3.6 1.77 6.172 4.942 2.572 3.173 3.68 7.532 1.237 4.636.697 9.428 2.551-2.282 5.388-6.296 2.837-4.013 4.956-10.466zm-31.575 30.194q2.832-1.32 4.973-3.58 2.21-2.292 3.625-5.39 1.414-3.097 1.705-6.26.36-3.194-.477-6.251-.768-3.09-2.618-5.253-1.78-2.197-4.303-3.459-5.215-2.529-10.947.144-2.832 1.32-5.042 3.612t-3.624 5.39q-1.414 3.098-1.705 6.26-.291 3.163.476 6.252 1.707 6.183 6.921 8.711 2.523 1.262 5.354 1.203 2.831-.059 5.662-1.379z" style="line-height:1.25;-inkscape-font-specification:Hitchhiker" letter-spacing="0" fill="url(#prefix__i)" transform="translate(0 211)"/><path d="M389.957-4.097q.492 1.956-.415 3.977-.908 2.02-2.772 2.89-1.796.837-3.513.04-1.717-.797-2.208-2.753-.525-2.026.383-4.046.976-2.053 2.772-2.89 1.865-.87 3.512-.041 1.717.797 2.241 2.823z" style="line-height:1.25;-inkscape-font-specification:Hitchhiker" letter-spacing="0" fill="url(#prefix__j)" transform="translate(0 211)"/><path d="M453.24-38.988q-.105.134-1.15.957-1.009.723-2.344 2.186-1.368 1.395-2.786 3.401-1.419 2.007-2.442 4.502-1.054 2.425-1.34 5.418-.32 2.923.545 6.219l-6.353 2.963-5.26-19.576 6.353-2.962.892 3.535q.645-1.141 1.253-2.181.644-1.142 1.423-2.177 1.418-2.007 2.823-3.503 1.44-1.597 2.629-2.655 1.225-1.16 1.957-1.753.801-.626.87-.658l1.481 3.176zm-21.13 6.07q-.957-3.673-2.351-6.302-1.358-2.73-2.812-4.407-1.486-1.745-2.798-2.394-1.344-.719-2.242-.3-.897.419-1.625 2.103-.691 1.584-1 4.166-.273 2.481-.09 5.759.22 3.176 1.177 6.85l5.26 19.575-6.422 2.995-5.26-19.575q-.957-3.674-2.351-6.303-1.358-2.73-2.812-4.406-1.486-1.745-2.798-2.395-1.344-.718-2.242-.3-.828.387-1.556 2.071-.691 1.584-1 4.166-.273 2.481-.09 5.76.22 3.176 1.177 6.85l.216.823L407.535.57l-6.422 2.995-5.045-18.752-.216-.824-5.876-21.978 6.422-2.995.368 1.51q.903-1.85 2.201-3.213 1.299-1.362 2.887-2.102 2.832-1.32 5.672-.46 2.84.863 5.394 3.455.76-4.138 2.548-7.158 1.787-3.019 4.55-4.307 2.624-1.224 5.33-.468 2.675.687 5.132 3.072 2.494 2.284 4.606 6.092 2.08 3.738 3.377 8.683z" style="line-height:1.25;-inkscape-font-specification:Hitchhiker" letter-spacing="0" fill="url(#prefix__k)" transform="translate(0 211)"/><path d="M491.976-61.423q.363 2.942-.103 5.009-.428 1.965-1.248 4.534-.751 2.536-2.055 5.33-5.68 11.981-16.522 17.037-3.937 1.836-7.928 1.931-3.991.096-7.59-1.673-3.636-1.668-6.108-4.803-2.503-3.205-3.648-7.464-.556-2.094-1.209-5.658-.584-3.595.214-7.834.323-1.833 1.166-3.991.843-2.159 2.367-4.3 1.594-2.171 4.071-4.252 2.477-2.08 6.138-3.786 9.737-4.541 16.714 2.127 1.426 1.436 2.508 3.034 1.081 1.598 1.822 3.186.708 1.52 1.15 2.827.441 1.308.625 2.063l.87 3.126-29.42 13.718q1.941 3.803 5.71 5.577 2.49 1.193 5.253 1.166 2.762-.027 5.524-1.315 8.564-3.993 13.014-13.383 1.119-2.287 1.755-4.35.673-2.163 1.023-3.756.318-1.661.415-2.716.097-1.054.138-1.325zm-40.213 6.981q-.322 1.832-.235 3.641.054 1.74.353 3.283l23.55-10.982q-.64-1.551-1.785-3.287-1.178-1.805-2.955-2.91-1.74-1.207-4.12-1.442-2.31-.268-5.35 1.149-8.286 3.864-9.458 10.548z" style="line-height:1.25;-inkscape-font-specification:Hitchhiker" letter-spacing="0" fill="url(#prefix__l)" transform="translate(0 211)"/></g></svg>